<?xml version="1.0" encoding="UTF-8"?>
<svg id="Layer_1" xmlns="http://www.w3.org/2000/svg" xmlns:xlink="http://www.w3.org/1999/xlink" version="1.1" viewBox="0 0 100 85">
  <!-- Generator: Adobe Illustrator 29.5.1, SVG Export Plug-In . SVG Version: 2.1.0 Build 141)  -->
  <defs>
    <style>
      .st0 {
        fill: #e61088;
      }

      .st0, .st1 {
        fill-rule: evenodd;
      }

      .st1 {
        fill: url(#linear-gradient);
      }

      .st2 {
        fill: #0a0a0a;
      }
    </style>
    <linearGradient id="linear-gradient" x1="95.18" y1="9.42" x2="95.18" y2="69.3" gradientUnits="userSpaceOnUse">
      <stop offset="0" stop-color="#27a8e0"/>
      <stop offset="1" stop-color="#e61088"/>
    </linearGradient>
  </defs>
  <polygon class="st1" points="95.69 80.11 95.67 80.14 98.68 83.12 98.68 7.91 93.13 1.4 91.67 1.4 91.67 76.14 95.69 80.11"/>
  <polygon class="st0" points="93.79 79.52 93.81 79.49 90.98 76.69 1.49 76.69 1.49 78.07 7.94 83.69 98.01 83.69 93.79 79.52"/>
  <g>
    <path class="st2" d="M93.1.02h-.12s0-.02,0-.02H0v78h.1v.02s8.02,6.98,8.02,6.98h91.89V8.1L93.1.02ZM98.25,8.74v73.31l-5.26-5.2V2.58l5.26,6.17ZM1.75,1.75h89.47v74.51H1.75V1.75ZM2.74,78h88.91l5.31,5.25H8.77l-6.03-5.25Z"/>
    <polygon class="st2" points="27.25 47.25 44.08 47.25 44.08 30.93 27.25 30.93 27.25 25.51 61.58 25.51 61.58 8.74 8.77 8.74 8.77 69.26 61.58 69.26 61.58 52.5 27.25 52.5 27.25 47.25"/>
    <polygon class="st2" points="66.02 30.82 48.77 30.82 48.77 47.36 66.02 47.36 66.02 69.26 84.21 69.26 84.21 8.74 66.02 8.74 66.02 30.82"/>
  </g>
</svg>