<svg xmlns="http://www.w3.org/2000/svg" version="1.1" viewBox="0 0 80 100">
  <!-- Generator: Adobe Illustrator 29.5.1, SVG Export Plug-In . SVG Version: 2.1.0 Build 141)  -->
  <defs>
    <style>
      .eh0 {
        fill: #b97f2b;
      }

      .eh1 {
        fill: #2c9c6f;
      }
    </style>
  </defs>
  <path class="eh1" d="M79.99,0H0s-.03,46.17.03,51.09c.1,8.22,2.43,16.11,6.92,23.44,4.28,7,10.41,13.01,18.72,18.38,2.94,1.9,6.08,3.44,9.12,4.93,1.18.58,2.4,1.18,3.57,1.78.48.25,1.04.38,1.63.38.59,0,1.16-.13,1.63-.38,1.18-.6,2.39-1.2,3.57-1.78,3.04-1.49,6.18-3.04,9.12-4.93,8.31-5.37,14.43-11.38,18.72-18.38,4.49-7.33,6.82-15.22,6.92-23.44.06-4.93.03-51.09.03-51.09ZM72.48,51c-.08,6.85-2.04,13.44-5.81,19.6-3.69,6.02-9.05,11.25-16.4,16-2.57,1.66-5.51,3.1-8.35,4.5h-.01c-.63.31-1.27.63-1.91.95-.65-.32-1.29-.64-1.92-.95-2.85-1.4-5.79-2.84-8.36-4.5-7.35-4.75-12.71-9.98-16.4-16-3.77-6.16-5.73-12.75-5.81-19.6-.04-3.6-.04-29.9-.04-43.5h65.04c0,13.6,0,39.89-.04,43.5Z"/>
  <path class="eh0" d="M42.26,73.21h0v-25.56h.91v-3.9l-.91-2.82v-8.48c4.98-.83,8.72-4.37,8.72-8.6,0-4.85-4.92-8.79-10.98-8.79s-10.98,3.93-10.98,8.79c0,4.23,3.74,7.77,8.72,8.6v8.48l-.91,2.82v3.9h.91v13.3h-6.71v1.41h1v1.84h1.49v3.51h-1.49v1.84h-1v1.41h6.71v2.24h0c.02,1.23,1.02,2.23,2.26,2.23s2.24-.99,2.26-2.23ZM37.8,19.75c0-1.22.98-2.2,2.2-2.2s2.2.99,2.2,2.2-.98,2.2-2.2,2.2-2.2-.99-2.2-2.2Z"/>
</svg>